<svg width="34" height="34" viewBox="0 0 34 34" fill="none" xmlns="http://www.w3.org/2000/svg">
<path d="M15.7868 25.334H6.61743" stroke="#FFBD4A" stroke-width="1.5" stroke-linecap="round" stroke-linejoin="round"/>
<path fill-rule="evenodd" clip-rule="evenodd" d="M21.5403 25.3352C21.5403 28.2278 22.5049 29.1911 25.3962 29.1911C28.2874 29.1911 29.252 28.2278 29.252 25.3352C29.252 22.4427 28.2874 21.4794 25.3962 21.4794C22.5049 21.4794 21.5403 22.4427 21.5403 25.3352Z" stroke="#FFBD4A" stroke-width="1.5" stroke-linecap="round" stroke-linejoin="round"/>
<path d="M20.0835 10.4751H29.2516" stroke="#FFBD4A" stroke-width="1.5" stroke-linecap="round" stroke-linejoin="round"/>
<path fill-rule="evenodd" clip-rule="evenodd" d="M14.3299 10.4732C14.3299 7.58191 13.3653 6.61731 10.4741 6.61731C7.58154 6.61731 6.61694 7.58191 6.61694 10.4732C6.61694 13.3657 7.58154 14.329 10.4741 14.329C13.3653 14.329 14.3299 13.3657 14.3299 10.4732Z" stroke="#FFBD4A" stroke-width="1.5" stroke-linecap="round" stroke-linejoin="round"/>
</svg>
