<svg width="21" height="19" viewBox="0 0 21 19" fill="none" xmlns="http://www.w3.org/2000/svg">
<path d="M4.42 15.1538C2.19 13.6904 0.75 11.4852 0.75 9.55062C0.75 6.26288 4.89 2.2334 10 2.2334C12.09 2.2334 14.03 2.90498 15.59 3.94743" stroke="#363C3C" stroke-width="1.5" stroke-linecap="round" stroke-linejoin="round"/>
<path d="M17.8497 6.0127C18.7407 7.14536 19.2597 8.39831 19.2597 9.55102C19.2597 12.8388 15.1097 16.8682 9.99969 16.8682C9.08969 16.8682 8.20069 16.7379 7.36969 16.5074" stroke="#363C3C" stroke-width="1.5" stroke-linecap="round" stroke-linejoin="round"/>
<path d="M7.76569 11.783C7.17069 11.1926 6.83769 10.3877 6.84069 9.54872C6.83669 7.7996 8.24869 6.37826 9.99469 6.37525C10.8347 6.37325 11.6407 6.70703 12.2347 7.30243" stroke="#363C3C" stroke-width="1.5" stroke-linecap="round" stroke-linejoin="round"/>
<path d="M13.1095 10.1113C12.8755 11.4064 11.8645 12.4218 10.5725 12.6593" stroke="#363C3C" stroke-width="1.5" stroke-linecap="round" stroke-linejoin="round"/>
<path d="M17.8917 1.64209L2.11771 17.4533" stroke="#363C3C" stroke-width="1.5" stroke-linecap="round" stroke-linejoin="round"/>
</svg>
